<?xml version="1.0" encoding="utf-8"?>
<!-- Generator: Adobe Illustrator 27.4.1, SVG Export Plug-In . SVG Version: 6.00 Build 0)  -->
<!DOCTYPE svg PUBLIC "-//W3C//DTD SVG 1.1//EN" "http://www.w3.org/Graphics/SVG/1.1/DTD/svg11.dtd" [
	<!ENTITY ns_extend "http://ns.adobe.com/Extensibility/1.0/">
	<!ENTITY ns_ai "http://ns.adobe.com/AdobeIllustrator/10.0/">
	<!ENTITY ns_graphs "http://ns.adobe.com/Graphs/1.0/">
	<!ENTITY ns_vars "http://ns.adobe.com/Variables/1.0/">
	<!ENTITY ns_imrep "http://ns.adobe.com/ImageReplacement/1.0/">
	<!ENTITY ns_sfw "http://ns.adobe.com/SaveForWeb/1.0/">
	<!ENTITY ns_custom "http://ns.adobe.com/GenericCustomNamespace/1.0/">
	<!ENTITY ns_adobe_xpath "http://ns.adobe.com/XPath/1.0/">
]>
<svg version="1.1" id="Capa_1" xmlns:x="&ns_extend;" xmlns:i="&ns_ai;" xmlns:graph="&ns_graphs;"
	 xmlns="http://www.w3.org/2000/svg" xmlns:xlink="http://www.w3.org/1999/xlink" x="0px" y="0px" viewBox="0 0 708.7 566.9"
	 style="enable-background:new 0 0 708.7 566.9;" xml:space="preserve">
<style type="text/css">
	.st0{fill-rule:evenodd;clip-rule:evenodd;stroke:#FFFFFF;stroke-miterlimit:10;}
</style>
<metadata>
	<x:xmpmeta  xmlns:x="adobe:ns:meta/">
		<rdf:RDF  xmlns:rdf="http://www.w3.org/1999/02/22-rdf-syntax-ns#">
			
				<rdf:Description  rdf:about="" xmlns:dc="http://purl.org/dc/elements/1.1/" xmlns:illustrator="http://ns.adobe.com/illustrator/1.0/" xmlns:pdf="http://ns.adobe.com/pdf/1.3/" xmlns:stDim="http://ns.adobe.com/xap/1.0/sType/Dimensions#" xmlns:stEvt="http://ns.adobe.com/xap/1.0/sType/ResourceEvent#" xmlns:stRef="http://ns.adobe.com/xap/1.0/sType/ResourceRef#" xmlns:xmp="http://ns.adobe.com/xap/1.0/" xmlns:xmpG="http://ns.adobe.com/xap/1.0/g/" xmlns:xmpGImg="http://ns.adobe.com/xap/1.0/g/img/" xmlns:xmpMM="http://ns.adobe.com/xap/1.0/mm/" xmlns:xmpTPg="http://ns.adobe.com/xap/1.0/t/pg/">
				<dc:format>image/svg+xml</dc:format>
				<dc:title>
					<rdf:Alt>
						<rdf:li>Print</rdf:li>
					</rdf:Alt>
				</dc:title>
				<xmp:MetadataDate>2023-07-13T17:43-03:00</xmp:MetadataDate>
				<xmp:ModifyDate>2023-07-13T17:43-03:00</xmp:ModifyDate>
				<xmp:CreateDate>2023-07-13T17:43-03:00</xmp:CreateDate>
				<xmp:CreatorTool>Adobe Illustrator 26.0 (Windows)</xmp:CreatorTool>
				<xmp:Thumbnails>
					<rdf:Alt>
						<rdf:li  rdf:parseType="Resource">
							<xmpGImg:width>256</xmpGImg:width>
							<xmpGImg:height>84</xmpGImg:height>
							<xmpGImg:format>JPEG</xmpGImg:format>
							<xmpGImg:image>/9j/4AAQSkZJRgABAgEASABIAAD/7QAsUGhvdG9zaG9wIDMuMAA4QklNA+0AAAAAABAASAAAAAEA
AQBIAAAAAQAB/+4ADkFkb2JlAGTAAAAAAf/bAIQABgQEBAUEBgUFBgkGBQYJCwgGBggLDAoKCwoK
DBAMDAwMDAwQDA4PEA8ODBMTFBQTExwbGxscHx8fHx8fHx8fHwEHBwcNDA0YEBAYGhURFRofHx8f
Hx8fHx8fHx8fHx8fHx8fHx8fHx8fHx8fHx8fHx8fHx8fHx8fHx8fHx8fHx8f/8AAEQgAVAEAAwER
AAIRAQMRAf/EAaIAAAAHAQEBAQEAAAAAAAAAAAQFAwIGAQAHCAkKCwEAAgIDAQEBAQEAAAAAAAAA
AQACAwQFBgcICQoLEAACAQMDAgQCBgcDBAIGAnMBAgMRBAAFIRIxQVEGE2EicYEUMpGhBxWxQiPB
UtHhMxZi8CRygvElQzRTkqKyY3PCNUQnk6OzNhdUZHTD0uIIJoMJChgZhJRFRqS0VtNVKBry4/PE
1OT0ZXWFlaW1xdXl9WZ2hpamtsbW5vY3R1dnd4eXp7fH1+f3OEhYaHiImKi4yNjo+Ck5SVlpeYmZ
qbnJ2en5KjpKWmp6ipqqusra6voRAAICAQIDBQUEBQYECAMDbQEAAhEDBCESMUEFURNhIgZxgZEy
obHwFMHR4SNCFVJicvEzJDRDghaSUyWiY7LCB3PSNeJEgxdUkwgJChgZJjZFGidkdFU38qOzwygp
0+PzhJSktMTU5PRldYWVpbXF1eX1RlZmdoaWprbG1ub2R1dnd4eXp7fH1+f3OEhYaHiImKi4yNjo
+DlJWWl5iZmpucnZ6fkqOkpaanqKmqq6ytrq+v/aAAwDAQACEQMRAD8A7xirsVdirsVdirsVdirs
VdirsVdirsVdirsVdirsVdirsVdirsVdirsVdirsVb5v/MfvxVvm/wDMfvxV3N/5j9+Ku5v/ADH7
8Vdzf+Y/firub/zH78Vdzf8AmP34q7m/8x+/FVuKuxV2KuxV2KuxV2KuxV2KuxV2KuxV2KuxV2Ku
xV2KuxV2KuxV2KuxV2KuxV2KuxV2KuxV2KuxV2KuxV2KuxV2KqjW1yq82icL/MVIH34qp4q7FUab
eEaUs/H96ZKcvbfbFUFirsVdirsVdirsVdirsVdirsVdirsVdirsVdirsVdirsVdirsVdirsVdir
sVdirsVcASQAKk9BiqZQQSWVs93LHSbZYA3avU0xVTW/1KPjcM5aNyQK04mnUUxVff2TPxureM+j
Iodgv7JPXYYql2Kpi3/HDX/jL/XFUuFK79MVTeXSIHshPbcuZUOFYg1HcdMVSjFUwvLayjtIpog/
KbdQxBAp1rtiqX4qi9MthcXaKwqi/E49h/biqjdQmC4kiP7BoPl2/DFVLFUVpsEE9yIZeXxA8Spp
uBXfFW9Rt4Ybr0IAxK0DV3qSKilPniqJexsra1R7rmJ2H92pFf1YqleKuxVH2Nh69ncS0+ICkXzG
5/piqAxV2KpnplhaXcLF+YkQ0JBFN+nbFUvmiaKV42+0hIP0Yq3bwtNMkS9XNPl4nFUw1TT7S1hD
JzLsaCpFPftiqV4q7FUfdaf6WnwTU+M/3n+y3X7sVQGKuxV2Ko7SwEFxcU5PClUB8T3xVDxpPdzh
OdZHrQucVTNDFa6dEbmPlLGziOM9OVe+KpdBezwz+qhpU1ZB9k1O4piq/VYUivXCCitRqeFRviqs
3/HDX/jL/XFUuxVP47wW0VgrbRSoQx8DRaHFUDrFl6M3qoP3Upr8m7jFXX//ABzrL5N/DFUuxVN9
Nra2TXXAs0rhVAFfhB3/AI4q1r0FHjuF6OOLH3G4/DFUpxVGaP8A8dGH/Zf8ROKpxNbJDLPf8fVl
ABRPCgAxVj888s8pkkNWP4ewxVTxVwBJoOuKsktj9WaCz4ndCztTbl16/fiqSajb+heSIBRa8l+R
3xVDYqm2jTCG2uZSKhCpPy3xVrXbcCRLlN1kFGI8R0P0jFVmlhYIZr5x/djjGPFjiqJ141t4CepP
8MVSTFVext/Xuo4/2Sat8hucVT4sLyK5gK8eJ4oSOvgf+CGKsbIIJB2I2IxVrFXYqiLK7+rSlivO
NwVkTxU4qrPBppBkhujGRusbKSQewqMVRM9wk2lwtcisjsVWT+WhoWNPbFVCNNLt2EjTG4Zd1jVS
or71xVB3E7zzPK/2mNaeHgMVRrf8cNf+Mv8AXFUuxVMdS/3isP8AUP6lxVF6fMl9ZNazH41FAe9O
x+jFUPqsTRWVpG/2k5A/hiqWxozuqLuzEAfM4qm1/fS2bx21swAjQBjQHf6cVVUdtQ0pw28y16fz
DcfeNsVSLFUZo/8Ax0Yf9l/xE4qmX18w6tLDIf3T8QK9FPEfrxVL9Vsfq0/JB+5k3X2PcYqgcVRm
k2/rXqVHwR/G30dPxxVWl1q79djGw9IN8IoOmKq+txrLbw3adKAE/wCS24xVJsVTGw/45178l/ji
qJsiL3THtj/eRD4f1r/TFUNqbCGKGxQ/3Y5Skd2OKonXf95oPn/DFUlxVM9M/wBHtLi8P2gOEfz/
ANumKr7DV7l7pI5mBR/h6AbnpiqH1i39K9ZgPhl+MfM9fxxVA4q7FW1VmNFBY+A3xVd6E3++2+44
qjZopP0VbrwaodqihriqC9Cb/fbfccVWkEGhFCOoOKpg3/HDX/jL/XFUuFK79MVTC/uLKW1hjiZi
8I4rUUqDStfuxVCW1w9vMsqdVPTxHcYqjdWv4LpIhFWq1LAinWmKqOmS2kM/qzk1T+7AFRU1rXFV
G8kWW6kkUllY1BOxxVF6RewWpkMrEBqUUCvTviqFvDbGctbklG3IIpQk9MVVNMmt4LkTTEjgDxAF
akimKu1Oa3nuTNCSeYHIEUoQKYqio9TtprT6veBiRsJF36dD88VSyQIHYISUr8JOxIxVMLO5soLO
ROTCeVSGIHTrQDFUtxVNre+sf0eLWZmNQQaDpvXb5YqlTcQx4mq1+EnwxVMLK4sY7OWKV2DzbNQV
pTpTFUPp939VuBId0Io4HgcVU2kE1wZJiQHarkbkA+GKphqd9Z3Nuqxs3NDVQRse2KpWtOQrsK7n
2xVMLy6s2sY7a3ZvgNSCKV61P44ql6Gjqa0oRuOoxVNdSvbC6gADN6qboeNK16jFUpxV2KqsFzPA
xaFyhIoaf24qrfpXUP8Afx+4f0xV36V1D/fx+4f0xV36V1D/AH8fuH9MVQ8s0kzmSRuTnqT7YqjG
lj/Q6x8h6glqVrvTftiqAxV2KuxV2KuxV2KuxV2KuxV2KuxV2KuxV2KuxV2KuxV2KuxV2KuxV2Ku
xV2KuxV2KuxV2KuxV2KuxV2KuxV2KuxV2KuxV2KuxV2KuxV2KuxV2KuxV2KuxV2KuxV2KuxV2Kux
V2KuxV2KuxV2KuxV2KuxV2KuxV2KuxV2KuxV2KuxV2KuxV2KuxV2KuxV2KuxV2KuxV2KuxV2KuxV
2KuxV2KuxV2KuxVlH+43/in/AITFXf7jf+Kf+ExV3+43/in/AITFXf7jf+Kf+ExV3+43/in/AITF
Xf7jf+Kf+ExV3+43/in/AITFXf7jf+Kf+ExV3+43/in/AITFXf7jf+Kf+ExV3+43/in/AITFXf7j
f+Kf+ExV3+43/in/AITFXf7jf+Kf+ExV3+43/in/AITFXf7jf+Kf+ExV3+43/in/AITFXf7jf+Kf
+ExV3+43/in/AITFXf7jf+Kf+ExV3+43/in/AITFXf7jf+Kf+ExV3+43/in/AITFVh/RFd/q9e/2
MVd/uH/5d/8AhMVd/uH/AOXf/hMVd/uH/wCXf/hMVd/uH/5d/wDhMVd/uH/5d/8AhMVd/uH/AOXf
/hMVd/uH/wCXf/hMVd/uH/5d/wDhMVf/2Q==
								</xmpGImg:image>
						</rdf:li>
					</rdf:Alt>
				</xmp:Thumbnails>
				<xmpMM:InstanceID>xmp.iid:fc06b5dc-ac3f-3442-89c8-04ad7d67bd0c</xmpMM:InstanceID>
				<xmpMM:DocumentID>xmp.did:fc06b5dc-ac3f-3442-89c8-04ad7d67bd0c</xmpMM:DocumentID>
				<xmpMM:OriginalDocumentID>uuid:5D20892493BFDB11914A8590D31508C8</xmpMM:OriginalDocumentID>
				<xmpMM:RenditionClass>proof:pdf</xmpMM:RenditionClass>
				<xmpMM:DerivedFrom  rdf:parseType="Resource">
					<stRef:instanceID>xmp.iid:cd012c1f-cc0d-cb4d-a101-df92faeaf739</stRef:instanceID>
					<stRef:documentID>xmp.did:cd012c1f-cc0d-cb4d-a101-df92faeaf739</stRef:documentID>
					<stRef:originalDocumentID>uuid:5D20892493BFDB11914A8590D31508C8</stRef:originalDocumentID>
					<stRef:renditionClass>proof:pdf</stRef:renditionClass>
				</xmpMM:DerivedFrom>
				<xmpMM:History>
					<rdf:Seq>
						<rdf:li  rdf:parseType="Resource">
							<stEvt:action>saved</stEvt:action>
							<stEvt:instanceID>xmp.iid:4ccdbb22-7139-2040-a6ac-647eebb63d07</stEvt:instanceID>
							<stEvt:when>2023-07-13T17:36:47-03:00</stEvt:when>
							<stEvt:softwareAgent>Adobe Illustrator 26.0 (Windows)</stEvt:softwareAgent>
							<stEvt:changed>/</stEvt:changed>
						</rdf:li>
						<rdf:li  rdf:parseType="Resource">
							<stEvt:action>saved</stEvt:action>
							<stEvt:instanceID>xmp.iid:fc06b5dc-ac3f-3442-89c8-04ad7d67bd0c</stEvt:instanceID>
							<stEvt:when>2023-07-13T17:43-03:00</stEvt:when>
							<stEvt:softwareAgent>Adobe Illustrator 26.0 (Windows)</stEvt:softwareAgent>
							<stEvt:changed>/</stEvt:changed>
						</rdf:li>
					</rdf:Seq>
				</xmpMM:History>
				<illustrator:StartupProfile>Print</illustrator:StartupProfile>
				<illustrator:CreatorSubTool>Adobe Illustrator</illustrator:CreatorSubTool>
				<xmpTPg:HasVisibleOverprint>False</xmpTPg:HasVisibleOverprint>
				<xmpTPg:HasVisibleTransparency>False</xmpTPg:HasVisibleTransparency>
				<xmpTPg:NPages>1</xmpTPg:NPages>
				<xmpTPg:MaxPageSize  rdf:parseType="Resource">
					<stDim:w>25.000000</stDim:w>
					<stDim:h>20.000000</stDim:h>
					<stDim:unit>Centimeters</stDim:unit>
				</xmpTPg:MaxPageSize>
				<xmpTPg:PlateNames>
					<rdf:Seq>
						<rdf:li>Black</rdf:li>
					</rdf:Seq>
				</xmpTPg:PlateNames>
				<xmpTPg:SwatchGroups>
					<rdf:Seq>
						<rdf:li  rdf:parseType="Resource">
							<xmpG:groupName>Grupo de muestras por defecto</xmpG:groupName>
							<xmpG:groupType>0</xmpG:groupType>
							<xmpG:Colorants>
								<rdf:Seq>
									<rdf:li  rdf:parseType="Resource">
										<xmpG:swatchName>Blanco</xmpG:swatchName>
										<xmpG:mode>CMYK</xmpG:mode>
										<xmpG:type>PROCESS</xmpG:type>
										<xmpG:cyan>0.000000</xmpG:cyan>
										<xmpG:magenta>0.000000</xmpG:magenta>
										<xmpG:yellow>0.000000</xmpG:yellow>
										<xmpG:black>0.000000</xmpG:black>
									</rdf:li>
									<rdf:li  rdf:parseType="Resource">
										<xmpG:swatchName>Negro</xmpG:swatchName>
										<xmpG:mode>CMYK</xmpG:mode>
										<xmpG:type>PROCESS</xmpG:type>
										<xmpG:cyan>0.000000</xmpG:cyan>
										<xmpG:magenta>0.000000</xmpG:magenta>
										<xmpG:yellow>0.000000</xmpG:yellow>
										<xmpG:black>100.000000</xmpG:black>
									</rdf:li>
									<rdf:li  rdf:parseType="Resource">
										<xmpG:swatchName>Rojo CMYK</xmpG:swatchName>
										<xmpG:mode>CMYK</xmpG:mode>
										<xmpG:type>PROCESS</xmpG:type>
										<xmpG:cyan>0.000000</xmpG:cyan>
										<xmpG:magenta>100.000000</xmpG:magenta>
										<xmpG:yellow>100.000000</xmpG:yellow>
										<xmpG:black>0.000000</xmpG:black>
									</rdf:li>
									<rdf:li  rdf:parseType="Resource">
										<xmpG:swatchName>Amarillo CMYK</xmpG:swatchName>
										<xmpG:mode>CMYK</xmpG:mode>
										<xmpG:type>PROCESS</xmpG:type>
										<xmpG:cyan>0.000000</xmpG:cyan>
										<xmpG:magenta>0.000000</xmpG:magenta>
										<xmpG:yellow>100.000000</xmpG:yellow>
										<xmpG:black>0.000000</xmpG:black>
									</rdf:li>
									<rdf:li  rdf:parseType="Resource">
										<xmpG:swatchName>Verde CMYK</xmpG:swatchName>
										<xmpG:mode>CMYK</xmpG:mode>
										<xmpG:type>PROCESS</xmpG:type>
										<xmpG:cyan>100.000000</xmpG:cyan>
										<xmpG:magenta>0.000000</xmpG:magenta>
										<xmpG:yellow>100.000000</xmpG:yellow>
										<xmpG:black>0.000000</xmpG:black>
									</rdf:li>
									<rdf:li  rdf:parseType="Resource">
										<xmpG:swatchName>Cian CMYK</xmpG:swatchName>
										<xmpG:mode>CMYK</xmpG:mode>
										<xmpG:type>PROCESS</xmpG:type>
										<xmpG:cyan>100.000000</xmpG:cyan>
										<xmpG:magenta>0.000000</xmpG:magenta>
										<xmpG:yellow>0.000000</xmpG:yellow>
										<xmpG:black>0.000000</xmpG:black>
									</rdf:li>
									<rdf:li  rdf:parseType="Resource">
										<xmpG:swatchName>Azul CMYK</xmpG:swatchName>
										<xmpG:mode>CMYK</xmpG:mode>
										<xmpG:type>PROCESS</xmpG:type>
										<xmpG:cyan>100.000000</xmpG:cyan>
										<xmpG:magenta>100.000000</xmpG:magenta>
										<xmpG:yellow>0.000000</xmpG:yellow>
										<xmpG:black>0.000000</xmpG:black>
									</rdf:li>
									<rdf:li  rdf:parseType="Resource">
										<xmpG:swatchName>Magenta CMYK</xmpG:swatchName>
										<xmpG:mode>CMYK</xmpG:mode>
										<xmpG:type>PROCESS</xmpG:type>
										<xmpG:cyan>0.000000</xmpG:cyan>
										<xmpG:magenta>100.000000</xmpG:magenta>
										<xmpG:yellow>0.000000</xmpG:yellow>
										<xmpG:black>0.000000</xmpG:black>
									</rdf:li>
									<rdf:li  rdf:parseType="Resource">
										<xmpG:swatchName>C=15 M=100 Y=90 K=10</xmpG:swatchName>
										<xmpG:mode>CMYK</xmpG:mode>
										<xmpG:type>PROCESS</xmpG:type>
										<xmpG:cyan>15.000000</xmpG:cyan>
										<xmpG:magenta>100.000000</xmpG:magenta>
										<xmpG:yellow>90.000000</xmpG:yellow>
										<xmpG:black>10.000000</xmpG:black>
									</rdf:li>
									<rdf:li  rdf:parseType="Resource">
										<xmpG:swatchName>C=0 M=90 Y=85 K=0</xmpG:swatchName>
										<xmpG:mode>CMYK</xmpG:mode>
										<xmpG:type>PROCESS</xmpG:type>
										<xmpG:cyan>0.000000</xmpG:cyan>
										<xmpG:magenta>90.000000</xmpG:magenta>
										<xmpG:yellow>85.000000</xmpG:yellow>
										<xmpG:black>0.000000</xmpG:black>
									</rdf:li>
									<rdf:li  rdf:parseType="Resource">
										<xmpG:swatchName>C=0 M=80 Y=95 K=0</xmpG:swatchName>
										<xmpG:mode>CMYK</xmpG:mode>
										<xmpG:type>PROCESS</xmpG:type>
										<xmpG:cyan>0.000000</xmpG:cyan>
										<xmpG:magenta>80.000000</xmpG:magenta>
										<xmpG:yellow>95.000000</xmpG:yellow>
										<xmpG:black>0.000000</xmpG:black>
									</rdf:li>
									<rdf:li  rdf:parseType="Resource">
										<xmpG:swatchName>C=0 M=50 Y=100 K=0</xmpG:swatchName>
										<xmpG:mode>CMYK</xmpG:mode>
										<xmpG:type>PROCESS</xmpG:type>
										<xmpG:cyan>0.000000</xmpG:cyan>
										<xmpG:magenta>50.000000</xmpG:magenta>
										<xmpG:yellow>100.000000</xmpG:yellow>
										<xmpG:black>0.000000</xmpG:black>
									</rdf:li>
									<rdf:li  rdf:parseType="Resource">
										<xmpG:swatchName>C=0 M=35 Y=85 K=0</xmpG:swatchName>
										<xmpG:mode>CMYK</xmpG:mode>
										<xmpG:type>PROCESS</xmpG:type>
										<xmpG:cyan>0.000000</xmpG:cyan>
										<xmpG:magenta>35.000000</xmpG:magenta>
										<xmpG:yellow>85.000000</xmpG:yellow>
										<xmpG:black>0.000000</xmpG:black>
									</rdf:li>
									<rdf:li  rdf:parseType="Resource">
										<xmpG:swatchName>C=5 M=0 Y=90 K=0</xmpG:swatchName>
										<xmpG:mode>CMYK</xmpG:mode>
										<xmpG:type>PROCESS</xmpG:type>
										<xmpG:cyan>5.000000</xmpG:cyan>
										<xmpG:magenta>0.000000</xmpG:magenta>
										<xmpG:yellow>90.000000</xmpG:yellow>
										<xmpG:black>0.000000</xmpG:black>
									</rdf:li>
									<rdf:li  rdf:parseType="Resource">
										<xmpG:swatchName>C=20 M=0 Y=100 K=0</xmpG:swatchName>
										<xmpG:mode>CMYK</xmpG:mode>
										<xmpG:type>PROCESS</xmpG:type>
										<xmpG:cyan>20.000000</xmpG:cyan>
										<xmpG:magenta>0.000000</xmpG:magenta>
										<xmpG:yellow>100.000000</xmpG:yellow>
										<xmpG:black>0.000000</xmpG:black>
									</rdf:li>
									<rdf:li  rdf:parseType="Resource">
										<xmpG:swatchName>C=50 M=0 Y=100 K=0</xmpG:swatchName>
										<xmpG:mode>CMYK</xmpG:mode>
										<xmpG:type>PROCESS</xmpG:type>
										<xmpG:cyan>50.000000</xmpG:cyan>
										<xmpG:magenta>0.000000</xmpG:magenta>
										<xmpG:yellow>100.000000</xmpG:yellow>
										<xmpG:black>0.000000</xmpG:black>
									</rdf:li>
									<rdf:li  rdf:parseType="Resource">
										<xmpG:swatchName>C=75 M=0 Y=100 K=0</xmpG:swatchName>
										<xmpG:mode>CMYK</xmpG:mode>
										<xmpG:type>PROCESS</xmpG:type>
										<xmpG:cyan>75.000000</xmpG:cyan>
										<xmpG:magenta>0.000000</xmpG:magenta>
										<xmpG:yellow>100.000000</xmpG:yellow>
										<xmpG:black>0.000000</xmpG:black>
									</rdf:li>
									<rdf:li  rdf:parseType="Resource">
										<xmpG:swatchName>C=85 M=10 Y=100 K=10</xmpG:swatchName>
										<xmpG:mode>CMYK</xmpG:mode>
										<xmpG:type>PROCESS</xmpG:type>
										<xmpG:cyan>85.000000</xmpG:cyan>
										<xmpG:magenta>10.000000</xmpG:magenta>
										<xmpG:yellow>100.000000</xmpG:yellow>
										<xmpG:black>10.000000</xmpG:black>
									</rdf:li>
									<rdf:li  rdf:parseType="Resource">
										<xmpG:swatchName>C=90 M=30 Y=95 K=30</xmpG:swatchName>
										<xmpG:mode>CMYK</xmpG:mode>
										<xmpG:type>PROCESS</xmpG:type>
										<xmpG:cyan>90.000000</xmpG:cyan>
										<xmpG:magenta>30.000000</xmpG:magenta>
										<xmpG:yellow>95.000000</xmpG:yellow>
										<xmpG:black>30.000000</xmpG:black>
									</rdf:li>
									<rdf:li  rdf:parseType="Resource">
										<xmpG:swatchName>C=75 M=0 Y=75 K=0</xmpG:swatchName>
										<xmpG:mode>CMYK</xmpG:mode>
										<xmpG:type>PROCESS</xmpG:type>
										<xmpG:cyan>75.000000</xmpG:cyan>
										<xmpG:magenta>0.000000</xmpG:magenta>
										<xmpG:yellow>75.000000</xmpG:yellow>
										<xmpG:black>0.000000</xmpG:black>
									</rdf:li>
									<rdf:li  rdf:parseType="Resource">
										<xmpG:swatchName>C=80 M=10 Y=45 K=0</xmpG:swatchName>
										<xmpG:mode>CMYK</xmpG:mode>
										<xmpG:type>PROCESS</xmpG:type>
										<xmpG:cyan>80.000000</xmpG:cyan>
										<xmpG:magenta>10.000000</xmpG:magenta>
										<xmpG:yellow>45.000000</xmpG:yellow>
										<xmpG:black>0.000000</xmpG:black>
									</rdf:li>
									<rdf:li  rdf:parseType="Resource">
										<xmpG:swatchName>C=70 M=15 Y=0 K=0</xmpG:swatchName>
										<xmpG:mode>CMYK</xmpG:mode>
										<xmpG:type>PROCESS</xmpG:type>
										<xmpG:cyan>70.000000</xmpG:cyan>
										<xmpG:magenta>15.000000</xmpG:magenta>
										<xmpG:yellow>0.000000</xmpG:yellow>
										<xmpG:black>0.000000</xmpG:black>
									</rdf:li>
									<rdf:li  rdf:parseType="Resource">
										<xmpG:swatchName>C=85 M=50 Y=0 K=0</xmpG:swatchName>
										<xmpG:mode>CMYK</xmpG:mode>
										<xmpG:type>PROCESS</xmpG:type>
										<xmpG:cyan>85.000000</xmpG:cyan>
										<xmpG:magenta>50.000000</xmpG:magenta>
										<xmpG:yellow>0.000000</xmpG:yellow>
										<xmpG:black>0.000000</xmpG:black>
									</rdf:li>
									<rdf:li  rdf:parseType="Resource">
										<xmpG:swatchName>C=100 M=95 Y=5 K=0</xmpG:swatchName>
										<xmpG:mode>CMYK</xmpG:mode>
										<xmpG:type>PROCESS</xmpG:type>
										<xmpG:cyan>100.000000</xmpG:cyan>
										<xmpG:magenta>95.000000</xmpG:magenta>
										<xmpG:yellow>5.000000</xmpG:yellow>
										<xmpG:black>0.000000</xmpG:black>
									</rdf:li>
									<rdf:li  rdf:parseType="Resource">
										<xmpG:swatchName>C=100 M=100 Y=25 K=25</xmpG:swatchName>
										<xmpG:mode>CMYK</xmpG:mode>
										<xmpG:type>PROCESS</xmpG:type>
										<xmpG:cyan>100.000000</xmpG:cyan>
										<xmpG:magenta>100.000000</xmpG:magenta>
										<xmpG:yellow>25.000000</xmpG:yellow>
										<xmpG:black>25.000000</xmpG:black>
									</rdf:li>
									<rdf:li  rdf:parseType="Resource">
										<xmpG:swatchName>C=75 M=100 Y=0 K=0</xmpG:swatchName>
										<xmpG:mode>CMYK</xmpG:mode>
										<xmpG:type>PROCESS</xmpG:type>
										<xmpG:cyan>75.000000</xmpG:cyan>
										<xmpG:magenta>100.000000</xmpG:magenta>
										<xmpG:yellow>0.000000</xmpG:yellow>
										<xmpG:black>0.000000</xmpG:black>
									</rdf:li>
									<rdf:li  rdf:parseType="Resource">
										<xmpG:swatchName>C=50 M=100 Y=0 K=0</xmpG:swatchName>
										<xmpG:mode>CMYK</xmpG:mode>
										<xmpG:type>PROCESS</xmpG:type>
										<xmpG:cyan>50.000000</xmpG:cyan>
										<xmpG:magenta>100.000000</xmpG:magenta>
										<xmpG:yellow>0.000000</xmpG:yellow>
										<xmpG:black>0.000000</xmpG:black>
									</rdf:li>
									<rdf:li  rdf:parseType="Resource">
										<xmpG:swatchName>C=35 M=100 Y=35 K=10</xmpG:swatchName>
										<xmpG:mode>CMYK</xmpG:mode>
										<xmpG:type>PROCESS</xmpG:type>
										<xmpG:cyan>35.000000</xmpG:cyan>
										<xmpG:magenta>100.000000</xmpG:magenta>
										<xmpG:yellow>35.000000</xmpG:yellow>
										<xmpG:black>10.000000</xmpG:black>
									</rdf:li>
									<rdf:li  rdf:parseType="Resource">
										<xmpG:swatchName>C=10 M=100 Y=50 K=0</xmpG:swatchName>
										<xmpG:mode>CMYK</xmpG:mode>
										<xmpG:type>PROCESS</xmpG:type>
										<xmpG:cyan>10.000000</xmpG:cyan>
										<xmpG:magenta>100.000000</xmpG:magenta>
										<xmpG:yellow>50.000000</xmpG:yellow>
										<xmpG:black>0.000000</xmpG:black>
									</rdf:li>
									<rdf:li  rdf:parseType="Resource">
										<xmpG:swatchName>C=0 M=95 Y=20 K=0</xmpG:swatchName>
										<xmpG:mode>CMYK</xmpG:mode>
										<xmpG:type>PROCESS</xmpG:type>
										<xmpG:cyan>0.000000</xmpG:cyan>
										<xmpG:magenta>95.000000</xmpG:magenta>
										<xmpG:yellow>20.000000</xmpG:yellow>
										<xmpG:black>0.000000</xmpG:black>
									</rdf:li>
									<rdf:li  rdf:parseType="Resource">
										<xmpG:swatchName>C=25 M=25 Y=40 K=0</xmpG:swatchName>
										<xmpG:mode>CMYK</xmpG:mode>
										<xmpG:type>PROCESS</xmpG:type>
										<xmpG:cyan>25.000000</xmpG:cyan>
										<xmpG:magenta>25.000000</xmpG:magenta>
										<xmpG:yellow>40.000000</xmpG:yellow>
										<xmpG:black>0.000000</xmpG:black>
									</rdf:li>
									<rdf:li  rdf:parseType="Resource">
										<xmpG:swatchName>C=40 M=45 Y=50 K=5</xmpG:swatchName>
										<xmpG:mode>CMYK</xmpG:mode>
										<xmpG:type>PROCESS</xmpG:type>
										<xmpG:cyan>40.000000</xmpG:cyan>
										<xmpG:magenta>45.000000</xmpG:magenta>
										<xmpG:yellow>50.000000</xmpG:yellow>
										<xmpG:black>5.000000</xmpG:black>
									</rdf:li>
									<rdf:li  rdf:parseType="Resource">
										<xmpG:swatchName>C=50 M=50 Y=60 K=25</xmpG:swatchName>
										<xmpG:mode>CMYK</xmpG:mode>
										<xmpG:type>PROCESS</xmpG:type>
										<xmpG:cyan>50.000000</xmpG:cyan>
										<xmpG:magenta>50.000000</xmpG:magenta>
										<xmpG:yellow>60.000000</xmpG:yellow>
										<xmpG:black>25.000000</xmpG:black>
									</rdf:li>
									<rdf:li  rdf:parseType="Resource">
										<xmpG:swatchName>C=55 M=60 Y=65 K=40</xmpG:swatchName>
										<xmpG:mode>CMYK</xmpG:mode>
										<xmpG:type>PROCESS</xmpG:type>
										<xmpG:cyan>55.000000</xmpG:cyan>
										<xmpG:magenta>60.000000</xmpG:magenta>
										<xmpG:yellow>65.000000</xmpG:yellow>
										<xmpG:black>40.000000</xmpG:black>
									</rdf:li>
									<rdf:li  rdf:parseType="Resource">
										<xmpG:swatchName>C=25 M=40 Y=65 K=0</xmpG:swatchName>
										<xmpG:mode>CMYK</xmpG:mode>
										<xmpG:type>PROCESS</xmpG:type>
										<xmpG:cyan>25.000000</xmpG:cyan>
										<xmpG:magenta>40.000000</xmpG:magenta>
										<xmpG:yellow>65.000000</xmpG:yellow>
										<xmpG:black>0.000000</xmpG:black>
									</rdf:li>
									<rdf:li  rdf:parseType="Resource">
										<xmpG:swatchName>C=30 M=50 Y=75 K=10</xmpG:swatchName>
										<xmpG:mode>CMYK</xmpG:mode>
										<xmpG:type>PROCESS</xmpG:type>
										<xmpG:cyan>30.000000</xmpG:cyan>
										<xmpG:magenta>50.000000</xmpG:magenta>
										<xmpG:yellow>75.000000</xmpG:yellow>
										<xmpG:black>10.000000</xmpG:black>
									</rdf:li>
									<rdf:li  rdf:parseType="Resource">
										<xmpG:swatchName>C=35 M=60 Y=80 K=25</xmpG:swatchName>
										<xmpG:mode>CMYK</xmpG:mode>
										<xmpG:type>PROCESS</xmpG:type>
										<xmpG:cyan>35.000000</xmpG:cyan>
										<xmpG:magenta>60.000000</xmpG:magenta>
										<xmpG:yellow>80.000000</xmpG:yellow>
										<xmpG:black>25.000000</xmpG:black>
									</rdf:li>
									<rdf:li  rdf:parseType="Resource">
										<xmpG:swatchName>C=40 M=65 Y=90 K=35</xmpG:swatchName>
										<xmpG:mode>CMYK</xmpG:mode>
										<xmpG:type>PROCESS</xmpG:type>
										<xmpG:cyan>40.000000</xmpG:cyan>
										<xmpG:magenta>65.000000</xmpG:magenta>
										<xmpG:yellow>90.000000</xmpG:yellow>
										<xmpG:black>35.000000</xmpG:black>
									</rdf:li>
									<rdf:li  rdf:parseType="Resource">
										<xmpG:swatchName>C=40 M=70 Y=100 K=50</xmpG:swatchName>
										<xmpG:mode>CMYK</xmpG:mode>
										<xmpG:type>PROCESS</xmpG:type>
										<xmpG:cyan>40.000000</xmpG:cyan>
										<xmpG:magenta>70.000000</xmpG:magenta>
										<xmpG:yellow>100.000000</xmpG:yellow>
										<xmpG:black>50.000000</xmpG:black>
									</rdf:li>
									<rdf:li  rdf:parseType="Resource">
										<xmpG:swatchName>C=50 M=70 Y=80 K=70</xmpG:swatchName>
										<xmpG:mode>CMYK</xmpG:mode>
										<xmpG:type>PROCESS</xmpG:type>
										<xmpG:cyan>50.000000</xmpG:cyan>
										<xmpG:magenta>70.000000</xmpG:magenta>
										<xmpG:yellow>80.000000</xmpG:yellow>
										<xmpG:black>70.000000</xmpG:black>
									</rdf:li>
								</rdf:Seq>
							</xmpG:Colorants>
						</rdf:li>
						<rdf:li  rdf:parseType="Resource">
							<xmpG:groupName>Grises</xmpG:groupName>
							<xmpG:groupType>1</xmpG:groupType>
							<xmpG:Colorants>
								<rdf:Seq>
									<rdf:li  rdf:parseType="Resource">
										<xmpG:swatchName>C=0 M=0 Y=0 K=100</xmpG:swatchName>
										<xmpG:mode>CMYK</xmpG:mode>
										<xmpG:type>PROCESS</xmpG:type>
										<xmpG:cyan>0.000000</xmpG:cyan>
										<xmpG:magenta>0.000000</xmpG:magenta>
										<xmpG:yellow>0.000000</xmpG:yellow>
										<xmpG:black>100.000000</xmpG:black>
									</rdf:li>
									<rdf:li  rdf:parseType="Resource">
										<xmpG:swatchName>C=0 M=0 Y=0 K=90</xmpG:swatchName>
										<xmpG:mode>CMYK</xmpG:mode>
										<xmpG:type>PROCESS</xmpG:type>
										<xmpG:cyan>0.000000</xmpG:cyan>
										<xmpG:magenta>0.000000</xmpG:magenta>
										<xmpG:yellow>0.000000</xmpG:yellow>
										<xmpG:black>89.999400</xmpG:black>
									</rdf:li>
									<rdf:li  rdf:parseType="Resource">
										<xmpG:swatchName>C=0 M=0 Y=0 K=80</xmpG:swatchName>
										<xmpG:mode>CMYK</xmpG:mode>
										<xmpG:type>PROCESS</xmpG:type>
										<xmpG:cyan>0.000000</xmpG:cyan>
										<xmpG:magenta>0.000000</xmpG:magenta>
										<xmpG:yellow>0.000000</xmpG:yellow>
										<xmpG:black>79.998800</xmpG:black>
									</rdf:li>
									<rdf:li  rdf:parseType="Resource">
										<xmpG:swatchName>C=0 M=0 Y=0 K=70</xmpG:swatchName>
										<xmpG:mode>CMYK</xmpG:mode>
										<xmpG:type>PROCESS</xmpG:type>
										<xmpG:cyan>0.000000</xmpG:cyan>
										<xmpG:magenta>0.000000</xmpG:magenta>
										<xmpG:yellow>0.000000</xmpG:yellow>
										<xmpG:black>69.999700</xmpG:black>
									</rdf:li>
									<rdf:li  rdf:parseType="Resource">
										<xmpG:swatchName>C=0 M=0 Y=0 K=60</xmpG:swatchName>
										<xmpG:mode>CMYK</xmpG:mode>
										<xmpG:type>PROCESS</xmpG:type>
										<xmpG:cyan>0.000000</xmpG:cyan>
										<xmpG:magenta>0.000000</xmpG:magenta>
										<xmpG:yellow>0.000000</xmpG:yellow>
										<xmpG:black>59.999100</xmpG:black>
									</rdf:li>
									<rdf:li  rdf:parseType="Resource">
										<xmpG:swatchName>C=0 M=0 Y=0 K=50</xmpG:swatchName>
										<xmpG:mode>CMYK</xmpG:mode>
										<xmpG:type>PROCESS</xmpG:type>
										<xmpG:cyan>0.000000</xmpG:cyan>
										<xmpG:magenta>0.000000</xmpG:magenta>
										<xmpG:yellow>0.000000</xmpG:yellow>
										<xmpG:black>50.000000</xmpG:black>
									</rdf:li>
									<rdf:li  rdf:parseType="Resource">
										<xmpG:swatchName>C=0 M=0 Y=0 K=40</xmpG:swatchName>
										<xmpG:mode>CMYK</xmpG:mode>
										<xmpG:type>PROCESS</xmpG:type>
										<xmpG:cyan>0.000000</xmpG:cyan>
										<xmpG:magenta>0.000000</xmpG:magenta>
										<xmpG:yellow>0.000000</xmpG:yellow>
										<xmpG:black>39.999400</xmpG:black>
									</rdf:li>
									<rdf:li  rdf:parseType="Resource">
										<xmpG:swatchName>C=0 M=0 Y=0 K=30</xmpG:swatchName>
										<xmpG:mode>CMYK</xmpG:mode>
										<xmpG:type>PROCESS</xmpG:type>
										<xmpG:cyan>0.000000</xmpG:cyan>
										<xmpG:magenta>0.000000</xmpG:magenta>
										<xmpG:yellow>0.000000</xmpG:yellow>
										<xmpG:black>29.998800</xmpG:black>
									</rdf:li>
									<rdf:li  rdf:parseType="Resource">
										<xmpG:swatchName>C=0 M=0 Y=0 K=20</xmpG:swatchName>
										<xmpG:mode>CMYK</xmpG:mode>
										<xmpG:type>PROCESS</xmpG:type>
										<xmpG:cyan>0.000000</xmpG:cyan>
										<xmpG:magenta>0.000000</xmpG:magenta>
										<xmpG:yellow>0.000000</xmpG:yellow>
										<xmpG:black>19.999700</xmpG:black>
									</rdf:li>
									<rdf:li  rdf:parseType="Resource">
										<xmpG:swatchName>C=0 M=0 Y=0 K=10</xmpG:swatchName>
										<xmpG:mode>CMYK</xmpG:mode>
										<xmpG:type>PROCESS</xmpG:type>
										<xmpG:cyan>0.000000</xmpG:cyan>
										<xmpG:magenta>0.000000</xmpG:magenta>
										<xmpG:yellow>0.000000</xmpG:yellow>
										<xmpG:black>9.999100</xmpG:black>
									</rdf:li>
									<rdf:li  rdf:parseType="Resource">
										<xmpG:swatchName>C=0 M=0 Y=0 K=5</xmpG:swatchName>
										<xmpG:mode>CMYK</xmpG:mode>
										<xmpG:type>PROCESS</xmpG:type>
										<xmpG:cyan>0.000000</xmpG:cyan>
										<xmpG:magenta>0.000000</xmpG:magenta>
										<xmpG:yellow>0.000000</xmpG:yellow>
										<xmpG:black>4.998800</xmpG:black>
									</rdf:li>
								</rdf:Seq>
							</xmpG:Colorants>
						</rdf:li>
						<rdf:li  rdf:parseType="Resource">
							<xmpG:groupName>Brillantes</xmpG:groupName>
							<xmpG:groupType>1</xmpG:groupType>
							<xmpG:Colorants>
								<rdf:Seq>
									<rdf:li  rdf:parseType="Resource">
										<xmpG:swatchName>C=0 M=100 Y=100 K=0</xmpG:swatchName>
										<xmpG:mode>CMYK</xmpG:mode>
										<xmpG:type>PROCESS</xmpG:type>
										<xmpG:cyan>0.000000</xmpG:cyan>
										<xmpG:magenta>100.000000</xmpG:magenta>
										<xmpG:yellow>100.000000</xmpG:yellow>
										<xmpG:black>0.000000</xmpG:black>
									</rdf:li>
									<rdf:li  rdf:parseType="Resource">
										<xmpG:swatchName>C=0 M=75 Y=100 K=0</xmpG:swatchName>
										<xmpG:mode>CMYK</xmpG:mode>
										<xmpG:type>PROCESS</xmpG:type>
										<xmpG:cyan>0.000000</xmpG:cyan>
										<xmpG:magenta>75.000000</xmpG:magenta>
										<xmpG:yellow>100.000000</xmpG:yellow>
										<xmpG:black>0.000000</xmpG:black>
									</rdf:li>
									<rdf:li  rdf:parseType="Resource">
										<xmpG:swatchName>C=0 M=10 Y=95 K=0</xmpG:swatchName>
										<xmpG:mode>CMYK</xmpG:mode>
										<xmpG:type>PROCESS</xmpG:type>
										<xmpG:cyan>0.000000</xmpG:cyan>
										<xmpG:magenta>10.000000</xmpG:magenta>
										<xmpG:yellow>95.000000</xmpG:yellow>
										<xmpG:black>0.000000</xmpG:black>
									</rdf:li>
									<rdf:li  rdf:parseType="Resource">
										<xmpG:swatchName>C=85 M=10 Y=100 K=0</xmpG:swatchName>
										<xmpG:mode>CMYK</xmpG:mode>
										<xmpG:type>PROCESS</xmpG:type>
										<xmpG:cyan>85.000000</xmpG:cyan>
										<xmpG:magenta>10.000000</xmpG:magenta>
										<xmpG:yellow>100.000000</xmpG:yellow>
										<xmpG:black>0.000000</xmpG:black>
									</rdf:li>
									<rdf:li  rdf:parseType="Resource">
										<xmpG:swatchName>C=100 M=90 Y=0 K=0</xmpG:swatchName>
										<xmpG:mode>CMYK</xmpG:mode>
										<xmpG:type>PROCESS</xmpG:type>
										<xmpG:cyan>100.000000</xmpG:cyan>
										<xmpG:magenta>90.000000</xmpG:magenta>
										<xmpG:yellow>0.000000</xmpG:yellow>
										<xmpG:black>0.000000</xmpG:black>
									</rdf:li>
									<rdf:li  rdf:parseType="Resource">
										<xmpG:swatchName>C=60 M=90 Y=0 K=0</xmpG:swatchName>
										<xmpG:mode>CMYK</xmpG:mode>
										<xmpG:type>PROCESS</xmpG:type>
										<xmpG:cyan>60.000000</xmpG:cyan>
										<xmpG:magenta>90.000000</xmpG:magenta>
										<xmpG:yellow>0.003100</xmpG:yellow>
										<xmpG:black>0.003100</xmpG:black>
									</rdf:li>
								</rdf:Seq>
							</xmpG:Colorants>
						</rdf:li>
					</rdf:Seq>
				</xmpTPg:SwatchGroups>
				<pdf:Producer>Adobe PDF library 15.00</pdf:Producer>
			</rdf:Description>
		</rdf:RDF>
	</x:xmpmeta>
	<sfw  xmlns="&ns_sfw;">
		<slices></slices>
		<sliceSourceBounds  bottomLeftOrigin="true" height="97" width="493.5" x="104.3" y="220.9"></sliceSourceBounds>
	</sfw>
</metadata>
<path class="st0" d="M571.9,284l-4.3,11.6h8.6L571.9,284z M425,284l-4.3,11.6h8.6L425,284z M295,284l-4.3,11.6h8.6L295,284z
	 M190.9,343.5c-1,1-1.6,1.7-2.5,1.9c-1.4,0.4-2.8-0.9-2.8-2.3v-91.3c0-1.4,1.2-2.6,2.6-2.3c1,0.2,1.6,1,2.6,2.1L190.9,343.5z
	 M119.6,275.6c1-8.4,8.2-14.8,16.8-14.8c8.5,0,15.7,6.4,16.8,14.8c9.3,1.1,16.1,9.7,14.6,19.3c-1.2,8.3-8.7,14.3-17.2,14.3h-4.4
	c-1.2,0-2.2-1-2.2-2.2s1-2.2,2.2-2.2h4.5c6.1,0,11.7-4.2,12.8-10.3c1.4-7.9-4.7-14.8-12.3-14.8c-1.2,0-2.2-1-2.2-2.2
	c0-9.7-11-16.8-21.2-9.5c-3,2.1-4.2,5.7-3.9,9.4c0.1,1.3-1,2.4-2.3,2.3c-3.6-0.3-7.1,0.8-9.3,3.7c-7.5,10.2-0.3,21.4,9.4,21.4h4.9
	c1.2,0,2.2,1,2.2,2.2s-1,2.2-2.2,2.2h-4.4c-8.4,0-15.9-6-17.2-14.3C103.6,285.3,110.4,276.8,119.6,275.6z M134.2,329.5v-26.4
	l-9.2-9.2c-0.8-0.8-0.8-2.2,0-3.1c0.8-0.8,2.2-0.8,3.1,0l6.1,6.1v-19.3c0-1.2,1-2.2,2.2-2.2c1.2,0,2.2,1,2.2,2.2v9.5l6.1-6.1
	c0.8-0.8,2.2-0.8,3.1,0c0.8,0.8,0.8,2.2,0,3.1l-9.2,9.2v8.6l1.2-1.2c0.8-0.8,2.2-0.8,3.1,0c0.8,0.8,0.8,2.2,0,3.1l-4.3,4.3v21.5
	h27.2c1.2,0,2.2,1,2.2,2.2s-1,2.2-2.2,2.2H107c-1.2,0-2.2-1-2.2-2.2s1-2.2,2.2-2.2L134.2,329.5L134.2,329.5z M585,319.7l-6.9-18.7
	h-12.2l-6.7,18.4c-0.1,0.2-0.2,0.5-0.2,0.7s0,0.5,0.2,0.7l0.2,0.2h1.8v3.5h-11.6V321h1.7c0.4,0,0.8-0.5,1-0.7
	c0.6-0.8,1.1-1.6,1.4-2.6l19.7-52.5l19.3,52.1c0.4,1,0.8,2,1.4,2.9c0.4,0.6,0.8,0.9,1.5,0.9h1.7v3.5h-14.5v-3.5h1.7
	c0.1,0,0.4,0,0.5-0.1c0-0.1,0-0.3,0-0.3C585.2,320.3,585.1,320,585,319.7z M516.1,321C516.2,321,516.2,321,516.1,321l0.1-0.1l0,0
	c0.2-0.2,0.4-0.5,0.6-0.8c0.2-0.3,0.3-0.7,0.4-1c0.1-0.4,0.1-0.8,0.1-1.1v-35.8l-19.4,42.5l-18.4-40V318c0,0.4,0.1,0.8,0.1,1.1
	c0.1,0.4,0.2,0.7,0.4,1c0.2,0.3,0.4,0.6,0.6,0.8c0.1,0.1,0.1,0.1,0.2,0.1h1.7v3.5H471V321h1.7l0.1-0.1c0.2-0.2,0.4-0.5,0.5-0.8l0,0
	c0.2-0.3,0.3-0.7,0.4-1.1s0.1-0.8,0.1-1.1V275c0-0.3,0-0.7-0.1-1c-0.1-0.4-0.2-0.7-0.4-1.1c-0.1-0.3-0.3-0.5-0.5-0.7l-0.1-0.1H471
	v-3.5h10.4l17.8,42l17.8-42h11.3v3.5h-1.5c-0.1,0-0.1,0-0.2,0.1c-0.2,0.2-0.4,0.5-0.6,0.7l0,0c-0.2,0.3-0.3,0.6-0.4,1
	c-0.1,0.3-0.1,0.7-0.1,1v42.9c0,0.4,0.1,0.8,0.1,1.1c0.1,0.3,0.2,0.7,0.4,1l0,0l0,0c0.2,0.3,0.4,0.6,0.6,0.8
	c0.1,0.1,0.1,0.1,0.2,0.1h1.8v3.5h-14.1v-3.5h1.6V321z M438,319.7l-6.9-18.7h-12.2l-6.7,18.4c-0.1,0.2-0.2,0.5-0.2,0.7
	s0,0.5,0.2,0.7l0.2,0.2h1.7v3.5h-11.6V321h1.8c0.3,0,0.8-0.5,1-0.8c0.6-0.8,1.1-1.6,1.4-2.6l19.7-52.5l19.3,52.1
	c0.4,1,0.8,2,1.4,2.9c0.4,0.6,0.8,0.9,1.5,0.9h1.7v3.5h-14.6V321h1.7c0.1,0,0.5,0,0.6-0.1c0-0.1,0-0.3,0-0.3
	C438.2,320.3,438.1,320,438,319.7z M343,272.3c0,0-0.1-0.1-0.2-0.1h-1.7v-3.5h14.2v3.5h-1.7c-0.1,0-0.2,0-0.2,0.1
	c-0.2,0.2-0.4,0.5-0.6,0.8c-0.2,0.3-0.3,0.7-0.4,1.1c-0.1,0.3-0.1,0.6-0.1,0.9v15.5l18.1-18c0.1-0.1,0.1-0.2,0.1-0.3h-1.4v-3.5h12.5
	v3.5h-1.3c-0.6,0-1.5,0.3-2,0.6c-0.8,0.5-1.5,1.2-2.2,1.8L360,290.8l17.2,26.1l0,0c0.2,0.3,0.4,0.5,0.6,0.8c0.4,0.6,0.9,1.1,1.5,1.6
	c0.6,0.6,1.3,1.1,2,1.5c0.5,0.3,1,0.4,1.6,0.4h1.3v3.5h-3.4c-1.4,0-2.9-0.1-4.3-0.3c-1.1-0.2-2.2-0.5-3.3-1.1
	c-0.9-0.5-1.8-1.1-2.5-1.9c-0.8-0.8-1.4-1.7-2-2.6L354,296.6l-1.8,1.9v19.3c0,0.4,0,1,0.1,1.3c0.1,0.4,0.3,0.8,0.5,1.2
	c0.1,0.3,0.3,0.5,0.5,0.8c0.1,0.1,0.1,0.1,0.2,0.1h1.7v3.5H341v-3.5h1.7c0.1,0,0.1,0,0.2-0.1c0.2-0.2,0.4-0.5,0.6-0.8s0.3-0.7,0.4-1
	c0.1-0.4,0.1-0.8,0.1-1.1v-42.9c0-0.3,0-0.7-0.1-1c-0.1-0.4-0.2-0.7-0.4-1C343.5,272.7,343.3,272.5,343,272.3z M308.1,319.7
	l-6.9-18.7H289l-6.7,18.4c-0.1,0.2-0.2,0.5-0.2,0.7s0,0.5,0.2,0.7l0.2,0.2h1.7v3.5h-11.6V321h1.8c0.3,0,0.8-0.5,1-0.8
	c0.6-0.8,1.1-1.6,1.4-2.6l19.7-52.5l19.3,52l0,0c0.3,1,0.8,2,1.4,2.8c0.4,0.6,0.8,0.9,1.5,0.9h1.7v3.5h-14.6v-3.5h1.7
	c0.1,0,0.5,0,0.6-0.1c0-0.1,0-0.3,0-0.3C308.2,320.3,308.2,320,308.1,319.7z M216.3,273.9c-0.1-0.3-0.2-0.7-0.3-1
	c-0.1-0.3-0.3-0.5-0.5-0.6s-0.3-0.2-0.5-0.2h-1.8v-3.5h10.2l27.2,42.8v-36.5c0-0.3-0.1-0.6-0.2-0.9c-0.1-0.4-0.3-0.8-0.4-1.1
	c-0.2-0.3-0.4-0.5-0.6-0.8c-0.1-0.1-0.1-0.1-0.2-0.1h-1.7v-3.5h11.7v3.5h-1.7c-0.1,0-0.2,0-0.2,0.1c-0.2,0.2-0.4,0.5-0.6,0.8
	c-0.2,0.3-0.3,0.7-0.4,1c-0.1,0.3-0.1,0.7-0.1,1v49.5h-7.1l-27.1-43v36.4c0,0.4,0.1,0.8,0.1,1.1c0.1,0.4,0.2,0.7,0.4,1
	s0.4,0.6,0.6,0.8l0,0l0,0c0.1,0.1,0.1,0.1,0.2,0.1h1.7v3.5h-11.6v-3.5h1.7c0,0,0.1-0.1,0.2-0.1l0,0l0,0c0.2-0.2,0.4-0.4,0.5-0.7
	c0.2-0.4,0.3-0.8,0.4-1.1c0.1-0.4,0.2-0.7,0.2-1.1v-42.9C216.3,274.7,216.3,274.3,216.3,273.9z"/>
</svg>
